<svg width="16" height="16" viewBox="0 0 16 16" fill="none" xmlns="http://www.w3.org/2000/svg">
<g clip-path="url(#clip0_20_10)">
<path d="M7.78024 2.95822L4.64687 4.9273C4.58572 4.96955 4.5137 4.99471 4.43871 5C4.36372 5.00529 4.28867 4.99052 4.22181 4.9573C4.15495 4.92409 4.09888 4.87372 4.05974 4.81172C4.02061 4.74973 3.99994 4.67852 4 4.60592V3.45546C2.63557 3.5 2.63557 5.00568 2.63557 5.00568C2.63557 5.33693 2.63708 6.19816 2.63557 6.58491V6.7681C2.22667 6.7681 1.69774 6.75426 1.40889 6.37329C1.12005 5.99232 1 5.58368 1 5.00568C1 3.11062 1.95554 2.02547 4 1.86834V0.657866C4.00007 0.585421 4.02079 0.514391 4.05988 0.452554C4.09896 0.390717 4.15492 0.340458 4.22162 0.307278C4.28843 0.273911 4.36347 0.258985 4.4385 0.26414C4.51352 0.269294 4.58562 0.29433 4.64687 0.336494L7.78024 2.31548C7.83324 2.352 7.87645 2.40021 7.90626 2.45611C7.93607 2.51201 7.95162 2.57398 7.95162 2.63685C7.95162 2.69972 7.93607 2.76169 7.90626 2.81758C7.87645 2.87348 7.83324 2.9217 7.78024 2.95822Z" fill="#196699"/>
<path d="M9 13L0 13L9 6L9 13Z" fill="white"/>
<path d="M8.5 7.02232L8.5 12.5L1.45727 12.5L8.5 7.02232Z" stroke="black" stroke-opacity="0.4"/>
<path d="M10 13L10 2.5C10 2.22386 10.2239 2 10.5 2L16 12.5C16 12.7761 15.7761 13 15.5 13H10Z" fill="#196699"/>
</g>
<defs>
<clipPath id="clip0_20_10">
<rect width="16" height="16" fill="white"/>
</clipPath>
</defs>
</svg>
