<svg width="80" height="8" viewBox="0 0 160 16" fill="none" xmlns="http://www.w3.org/2000/svg">
<path fill-rule="evenodd" clip-rule="evenodd" d="M40 3C37.2386 3 35 5.23858 35 8C35 10.7614 37.2386 13 40 13C42.7614 13 45 10.7614 45 8C45 5.23858 42.7614 3 40 3ZM34 8C34 4.68629 36.6863 2 40 2C43.3137 2 46 4.68629 46 8C46 11.3137 43.3137 14 40 14C36.6863 14 34 11.3137 34 8ZM39.5 4C39.7761 4 40 4.22386 40 4.5V8H42.5C42.7761 8 43 8.22386 43 8.5C43 8.77614 42.7761 9 42.5 9H39.5C39.2239 9 39 8.77614 39 8.5V4.5C39 4.22386 39.2239 4 39.5 4Z" fill="#333333"/>
<rect x="60" y="6" width="2" height="6" fill="#E80000"/>
<path fill-rule="evenodd" clip-rule="evenodd" d="M51 8C51 5.23858 53.2386 3 56 3C57.6358 3 59.0882 3.78555 60.0004 5H61.1973C60.1599 3.2066 58.2208 2 56 2C52.6863 2 50 4.68629 50 8C50 11.3137 52.6863 14 56 14C57.0929 14 58.1175 13.7078 59 13.1973V12.0004C58.1643 12.6281 57.1256 13 56 13C53.2386 13 51 10.7614 51 8ZM59 8.5C59 8.22386 58.7761 8 58.5 8H56V4.5C56 4.22386 55.7761 4 55.5 4C55.2239 4 55 4.22386 55 4.5V8.5C55 8.77614 55.2239 9 55.5 9H58.5C58.7761 9 59 8.77614 59 8.5Z" fill="#333333"/>
<rect x="60" y="13" width="2" height="2" fill="#E80000"/>
<rect x="3" y="3" width="4" height="10" fill="#333333"/>
<rect x="9" y="3" width="4" height="10" fill="#333333"/>
<circle cx="24" cy="8" r="6" fill="#F04632"/>
<rect x="20" y="7" width="8" height="2" fill="white"/>
<path d="M71.9999 14.4166C75.5437 14.4166 78.4166 11.5438 78.4166 7.99998C78.4166 4.45615 75.5437 1.58331 71.9999 1.58331C68.4561 1.58331 65.5833 4.45615 65.5833 7.99998C65.5833 11.5438 68.4561 14.4166 71.9999 14.4166Z" fill="white" stroke="#333333" stroke-linecap="round" stroke-linejoin="round"/>
<path d="M68.5 8.58331L70.8333 10.9166L75.5 5.08331" stroke="#333333" stroke-linecap="round" stroke-linejoin="round"/>
<path d="M87.9999 14.4166C91.5437 14.4166 94.4166 11.5438 94.4166 7.99998C94.4166 4.45615 91.5437 1.58331 87.9999 1.58331C84.4561 1.58331 81.5833 4.45615 81.5833 7.99998C81.5833 11.5438 84.4561 14.4166 87.9999 14.4166Z" fill="#E55D3C" stroke="#E55D3C" stroke-linecap="round" stroke-linejoin="round"/>
<path d="M84.5 8.58331L86.8333 10.9166L91.5 5.08331" stroke="white" stroke-linecap="round" stroke-linejoin="round"/>
<path d="M104 14.4166C107.544 14.4166 110.417 11.5438 110.417 7.99998C110.417 4.45615 107.544 1.58331 104 1.58331C100.456 1.58331 97.5833 4.45615 97.5833 7.99998C97.5833 11.5438 100.456 14.4166 104 14.4166Z" fill="#EDC900" stroke="#EDC900" stroke-linecap="round" stroke-linejoin="round"/>
<path d="M100.5 8.58331L102.833 10.9166L107.5 5.08331" stroke="white" stroke-linecap="round" stroke-linejoin="round"/>
<path d="M120 14.4166C123.544 14.4166 126.417 11.5438 126.417 7.99998C126.417 4.45615 123.544 1.58331 120 1.58331C116.456 1.58331 113.583 4.45615 113.583 7.99998C113.583 11.5438 116.456 14.4166 120 14.4166Z" fill="#009646" stroke="#009646" stroke-linecap="round" stroke-linejoin="round"/>
<path d="M116.5 8.58331L118.833 10.9166L123.5 5.08331" stroke="white" stroke-linecap="round" stroke-linejoin="round"/>
<path d="M159 16H145C144.653 16 144.332 15.82 144.149 15.525C143.966 15.23 143.95 14.862 144.105 14.552L151.105 0.552018C151.445 -0.125982 152.554 -0.125982 152.894 0.552018L159.894 14.552C160.049 14.862 160.033 15.23 159.85 15.525C159.667 15.82 159.347 16 159 16Z" fill="#FFDD17"/>
<path d="M153 6H151V10H153V6Z" fill="#333333"/>
<path d="M152 13C152.552 13 153 12.5523 153 12C153 11.4477 152.552 11 152 11C151.448 11 151 11.4477 151 12C151 12.5523 151.448 13 152 13Z" fill="#333333"/>
<path d="M132 4H133V10H132V4Z" fill="#333333"/>
<path d="M134 4H136V10H134V4Z" fill="#333333"/>
<path d="M142 7L137 2V12L142 7Z" fill="#333333"/>
</svg>
