<svg width="16" height="16" viewBox="0 0 16 16" fill="none" xmlns="http://www.w3.org/2000/svg">
<g clip-path="url(#clip0_20_22)">
<path d="M8.21976 2.95822L11.3531 4.9273C11.4143 4.96955 11.4863 4.99471 11.5613 5C11.6363 5.00529 11.7113 4.99052 11.7782 4.9573C11.845 4.92409 11.9011 4.87372 11.9403 4.81172C11.9794 4.74973 12.0001 4.67852 12 4.60592V3.45546C13.3644 3.5 13.3644 5.00568 13.3644 5.00568C13.3644 5.33693 13.3629 6.19816 13.3644 6.58491V6.7681C13.7733 6.7681 14.3023 6.75426 14.5911 6.37329C14.88 5.99232 15 5.58368 15 5.00568C15 3.11062 14.0445 2.02547 12 1.86834V0.657866C11.9999 0.585421 11.9792 0.514391 11.9401 0.452554C11.901 0.390717 11.8451 0.340458 11.7784 0.307278C11.7116 0.273911 11.6365 0.258985 11.5615 0.26414C11.4865 0.269294 11.4144 0.29433 11.3531 0.336494L8.21976 2.31548C8.16676 2.352 8.12355 2.40021 8.09374 2.45611C8.06393 2.51201 8.04838 2.57398 8.04838 2.63685C8.04838 2.69972 8.06393 2.76169 8.09374 2.81758C8.12355 2.87348 8.16676 2.9217 8.21976 2.95822Z" fill="#196699"/>
<path d="M7 13L16 13L7 6L7 13Z" fill="white"/>
<path d="M7.5 7.02232L7.5 12.5L14.5427 12.5L7.5 7.02232Z" stroke="black" stroke-opacity="0.4"/>
<path d="M6 13L6 2.5C6 2.22386 5.77614 2 5.5 2L0 12.5C0 12.7761 0.223857 13 0.5 13H6Z" fill="#196699"/>
</g>
<defs>
<clipPath id="clip0_20_22">
<rect width="16" height="16" fill="white"/>
</clipPath>
</defs>
</svg>
